<svg xmlns="http://www.w3.org/2000/svg" width="67.232" height="67.232" viewBox="0 0 67.232 67.232"><defs><style>.a{fill:#efeadd;}.b{fill:#254b6f;}.c{fill:#204464;}.d{fill:#d9d6cc;}.e{fill:#ee2820;}.f{fill:red;}.g{fill:#f26158;}</style></defs><path class="a" d="M57.958,0a9.273,9.273,0,0,0-9.273,9.273V67.232H0V9.273A9.273,9.273,0,0,1,9.273,0Zm0,0" transform="translate(0 0)"/><path class="b" d="M345.273,0A9.273,9.273,0,0,0,336,9.273V33.616h18.547V9.273A9.273,9.273,0,0,0,345.273,0Zm0,0" transform="translate(-287.315 0)"/><path class="c" d="M346.433.07a9.273,9.273,0,0,0-8.114,9.2V33.616H336V9.273A9.273,9.273,0,0,1,345.273,0,9.677,9.677,0,0,1,346.433.07Zm0,0" transform="translate(-287.315 0)"/><path class="d" d="M0,256.078v30.127H27.4C14.782,285.959,0,270.02,0,256.078Zm0,0" transform="translate(0 -218.973)"/><path class="e" d="M43.244,341.2c-.295-.709,1.166-2.61.633-3.144s-2.434.928-3.144.633c-.684-.283-.989-2.666-1.775-2.666s-1.091,2.387-1.774,2.666c-.709.294-2.609-1.167-3.144-.633s.928,2.434.633,3.144c-.286.684-2.673.988-2.673,1.774s2.387,1.091,2.666,1.774c.295.709-1.166,2.61-.633,3.144s2.434-.928,3.144-.633c.684.283.989,2.666,1.775,2.666s1.091-2.387,1.774-2.666c.709-.294,2.609,1.167,3.144.633s-.928-2.434-.633-3.144c.283-.684,2.666-.988,2.666-1.774S43.523,341.884,43.244,341.2Zm0,0" transform="translate(-27.363 -287.335)"/><path class="f" d="M168,376h2.318v2.318H168Zm0,0" transform="translate(-143.658 -321.519)"/><path class="f" d="M200,376h2.318v2.318H200Zm0,0" transform="translate(-171.021 -321.519)"/><path class="f" d="M232,376h2.318v2.318H232Zm0,0" transform="translate(-198.384 -321.519)"/><path class="f" d="M264,376h2.318v2.318H264Zm0,0" transform="translate(-225.748 -321.519)"/><path class="f" d="M296,376h2.318v2.318H296Zm0,0" transform="translate(-253.111 -321.519)"/><g transform="translate(8.114 5.796)"><path class="g" d="M56,40h2.318v2.318H56Zm0,0" transform="translate(-56 -40)"/><path class="g" d="M88,40h27.82v2.318H88Zm0,0" transform="translate(-83.363 -40)"/><path class="g" d="M56,80h2.318v2.318H56Zm0,0" transform="translate(-56 -74.204)"/><path class="g" d="M88,80h27.82v2.318H88Zm0,0" transform="translate(-83.363 -74.204)"/><path class="g" d="M56,128h2.318v2.318H56Zm0,0" transform="translate(-56 -115.249)"/><path class="g" d="M88,128h27.82v2.318H88Zm0,0" transform="translate(-83.363 -115.249)"/><path class="g" d="M56,176h2.318v2.318H56Zm0,0" transform="translate(-56 -156.294)"/><path class="g" d="M88,176h27.82v2.318H88Zm0,0" transform="translate(-83.363 -156.294)"/><path class="g" d="M56,224h2.318v2.318H56Zm0,0" transform="translate(-56 -197.339)"/><path class="g" d="M88,224h27.82v2.318H88Zm0,0" transform="translate(-83.363 -197.339)"/><path class="g" d="M56,272h2.318v2.318H56Zm0,0" transform="translate(-56 -238.384)"/><path class="g" d="M88,272h27.82v2.318H88Zm0,0" transform="translate(-83.363 -238.384)"/></g></svg>