<svg xmlns="http://www.w3.org/2000/svg" width="78.131" height="83.919" viewBox="0 0 78.131 83.919"><defs><style>.a{fill:#e6e7e8;}.b{fill:#d8d7da;}.c{fill:#c2000b;}.d{fill:#ee8700;}.e{fill:#ff9811;}.f{fill:#fe0000;}.g{fill:#bcbec0;}.h{fill:#f7f7f7;}.i{fill:#ff5023;}</style></defs><path class="a" d="M68.662,14.575V81.131a5.8,5.8,0,0,1-5.787,5.788H10.787A5.788,5.788,0,0,1,5,81.131V8.788A5.788,5.788,0,0,1,10.788,3h46.3v8.681a2.9,2.9,0,0,0,2.894,2.894Z" transform="translate(-5 -3)"/><path class="b" d="M52.575,55v2.894a5.771,5.771,0,0,1-.781,2.894H41V55Z" transform="translate(11.087 20.237)"/><path class="c" d="M39,53H65.044v5.787H39Z" transform="translate(10.194 19.344)"/><path class="d" d="M68.831,49.894v5.787H37V49.894A2.9,2.9,0,0,1,39.894,47H65.938A2.9,2.9,0,0,1,68.831,49.894Z" transform="translate(9.3 16.663)"/><path class="e" d="M57.885,53.4l1.924,2.879v1.447H42.447V56.275L44.371,53.4a5.777,5.777,0,0,0,.969-3.212V46.118A11.208,11.208,0,0,0,43.1,39.289a10.115,10.115,0,0,1,9.477-16.176,4.314,4.314,0,0,1,.579.087A10.111,10.111,0,0,1,59.3,39.1a11.876,11.876,0,0,0-2.387,7.032v4.051a5.777,5.777,0,0,0,.969,3.212Z" transform="translate(11.088 5.94)"/><circle class="b" cx="13.022" cy="13.022" r="13.022" transform="translate(11.575 52.088)"/><circle class="f" cx="13.022" cy="13.022" r="13.022" transform="translate(8.681 49.194)"/><path class="g" d="M52.575,14.575H43.894A2.9,2.9,0,0,1,41,11.681V3Z" transform="translate(11.087 -3)"/><path class="f" d="M39,53H65.044v2.894H39Z" transform="translate(10.194 19.344)"/><path class="h" d="M20.657,53.444a1.447,1.447,0,0,1-1.023-.424L15.293,48.68l2.046-2.046,3.318,3.318,7.658-7.658,2.046,2.046L21.68,53.02a1.447,1.447,0,0,1-1.023.424Z" transform="translate(-0.4 14.559)"/><path class="i" d="M27.341,12.341h2.894a1.447,1.447,0,0,1,1.447,1.447h2.894a4.341,4.341,0,0,0-4.341-4.341V8H27.341V9.447a4.341,4.341,0,0,0,0,8.681h2.894a1.447,1.447,0,0,1,0,2.894H27.341a1.447,1.447,0,0,1-1.447-1.447H23a4.341,4.341,0,0,0,4.341,4.341v1.447h2.894V23.916a4.341,4.341,0,1,0,0-8.681H27.341a1.447,1.447,0,0,1,0-2.894Z" transform="translate(3.044 -0.766)"/><path class="i" d="M33,13h2.894v2.894H33Z" transform="translate(7.512 1.469)"/><path class="i" d="M19,13h2.894v2.894H19Z" transform="translate(1.256 1.469)"/><g transform="translate(7.234 27.491)"><path class="g" d="M10,22h5.788v2.894H10Z" transform="translate(-10 -22)"/><path class="g" d="M16,22H50.725v2.894H16Z" transform="translate(-7.319 -22)"/><path class="g" d="M10,26H50.513v2.894H10Z" transform="translate(-10 -20.212)"/><path class="g" d="M10,30H50.513v2.894H10Z" transform="translate(-10 -18.425)"/><path class="g" d="M10,34h5.788v2.894H10Z" transform="translate(-10 -16.638)"/><path class="g" d="M26,34H43.363v2.894H26Z" transform="translate(-2.85 -16.638)"/><path class="g" d="M31,38H42.575v2.894H31Z" transform="translate(-0.616 -14.85)"/></g></svg>