<svg xmlns="http://www.w3.org/2000/svg" width="86.813" height="66.556" viewBox="0 0 86.813 66.556"><defs><style>.a{fill:#fffbea;}.b{fill:#fe0000;}.c{fill:#ff9090;}.d{fill:#898890;}.e{fill:#ffb655;}.f{fill:#57565c;}.g{fill:#c6c5ca;}.h{fill:#acabb1;}.i{fill:#ffc477;}.j{fill:#ee8700;}</style></defs><path class="a" d="M88.812,14V66.088a5.787,5.787,0,0,1-5.787,5.787H7.787A5.787,5.787,0,0,1,2,66.088V14Z" transform="translate(-2 -5.319)"/><path class="b" d="M88.812,13.787v2.894H2V13.787A5.787,5.787,0,0,1,7.788,8H83.025A5.787,5.787,0,0,1,88.812,13.787Z" transform="translate(-2 -8)"/><path class="c" d="M38.574,55.333,34.61,53.567,30.7,51.831V47.954a10.059,10.059,0,0,0,5.672-7.7h1.563a2.894,2.894,0,0,0,0-5.788H36.491V30.128a10.128,10.128,0,1,0-20.256,0v4.341H14.787a2.894,2.894,0,0,0,0,5.788H16.35a10.05,10.05,0,0,0,5.672,7.7v3.878l-3.907,1.736-3.964,1.765A8.681,8.681,0,0,0,9,63.262V66.3H43.725V63.262a8.681,8.681,0,0,0-5.149-7.928Z" transform="translate(1.128 -2.638)"/><path class="d" d="M35.835,50.894v3.038H22.813L20.18,44.991,21.366,43.8l4.341,1.447L26.72,41.2l3.964,1.765a8.681,8.681,0,0,1,5.151,7.929Z" transform="translate(6.124 6.836)"/><path class="e" d="M30.787,30.894a2.9,2.9,0,0,1-2.894,2.894H25V28h2.894a2.9,2.9,0,0,1,2.894,2.894Z" transform="translate(8.278 0.938)"/><path class="f" d="M32.256,28.128v2.894H31.3a4.361,4.361,0,0,1-4.21-3.284l-.622-2.5a5.788,5.788,0,0,1-5.788,5.787H12V28.128a10.128,10.128,0,0,1,20.256,0Z" transform="translate(2.469 -3.531)"/><path class="f" d="M26.8,41.736l-1.013,4.051-4.341-1.447L20,41.447,22.894,40Z" transform="translate(6.044 6.3)"/><path class="g" d="M22.048,43.82l2.633,8.942H16l2.633-8.942,1.707,1.707Z" transform="translate(4.256 8.007)"/><path class="h" d="M21.341,41l1.447,2.894L21.6,45.08l-1.707,1.707L18.186,45.08,17,43.894,18.447,41Z" transform="translate(4.703 6.747)"/><path class="f" d="M20.1,41.447l-1.447,2.894-4.341,1.447L13.3,41.736,17.207,40Z" transform="translate(3.05 6.3)"/><path class="d" d="M22.655,44.991l-2.633,8.942H7V50.894a8.681,8.681,0,0,1,5.149-7.928L16.115,41.2l1.013,4.051L21.469,43.8Z" transform="translate(0.234 6.836)"/><path class="e" d="M14.787,28v5.787H11.894a2.894,2.894,0,1,1,0-5.787Z" transform="translate(1.128 0.938)"/><path class="i" d="M24.681,37v4.341l-2.894,1.447H18.894L16,41.341V37Z" transform="translate(4.256 4.959)"/><path class="e" d="M24.681,37v3.357a10.067,10.067,0,0,1-8.681,0V37Z" transform="translate(4.256 4.959)"/><path class="i" d="M32.256,28.787v5.787a7.921,7.921,0,0,1-.116,1.447,10.114,10.114,0,0,1-20.025,0A7.92,7.92,0,0,1,12,34.575V28.787h8.681A5.787,5.787,0,0,0,26.469,23l.622,2.5a4.361,4.361,0,0,0,4.21,3.284Z" transform="translate(2.469 -1.297)"/><path class="j" d="M15,29h2.894v2.894H15Z" transform="translate(3.809 1.384)"/><path class="j" d="M21,29h2.894v2.894H21Z" transform="translate(6.491 1.384)"/><path class="b" d="M34,18h5.787v2.894H34Z" transform="translate(12.3 -3.531)"/><path class="b" d="M42,18h2.894v2.894H42Z" transform="translate(15.875 -3.531)"/><path class="b" d="M46,18h2.894v2.894H46Z" transform="translate(17.663 -3.531)"/><path class="b" d="M50,18h2.894v2.894H50Z" transform="translate(19.45 -3.531)"/><path class="b" d="M54,18h2.894v2.894H54Z" transform="translate(21.237 -3.531)"/><path class="b" d="M34,31h8.681v2.894H34Z" transform="translate(12.3 2.278)"/><g transform="translate(57.875 27.491)"><path class="b" d="M42,27h5.788v2.894H42Z" transform="translate(-42 -27)"/><path class="b" d="M48,27H59.575v2.894H48Z" transform="translate(-39.319 -27)"/><path class="b" d="M42,31H62.256v2.894H42Z" transform="translate(-42 -25.212)"/><path class="b" d="M42,37h2.894v2.894H42Z" transform="translate(-42 -22.531)"/><path class="b" d="M46,37h2.894v2.894H46Z" transform="translate(-40.213 -22.531)"/><path class="b" d="M50,37h2.894v2.894H50Z" transform="translate(-38.425 -22.531)"/><path class="b" d="M54,37h2.894v2.894H54Z" transform="translate(-36.638 -22.531)"/><path class="b" d="M42,48h5.788v2.894H42Z" transform="translate(-42 -17.616)"/><path class="b" d="M48,48h5.787v2.894H48Z" transform="translate(-39.319 -17.616)"/><path class="b" d="M54,48h2.894v2.894H54Z" transform="translate(-36.638 -17.616)"/></g></svg>