<svg xmlns="http://www.w3.org/2000/svg" width="230.675" height="162.562" viewBox="0 0 230.675 162.562"><defs><style>.a{fill:#fe0000;}.b{fill:#f2f2f2;}.c{fill:#3f3d56;}.d{fill:#2f2e41;}.e{fill:#a0616a;}.f{fill:#e6e6e6;}.g{fill:#c2000b;}.h{fill:#ffb8b8;}.i{fill:#ccc;}</style></defs><path class="a" d="M12.562,0A12.562,12.562,0,1,1,0,12.562,12.562,12.562,0,0,1,12.562,0Z" transform="translate(105.248 137.093)"/><path class="b" d="M460.406,347.97c7.028-2.111,14.5-4.312,20.073-9.329,4.981-4.484,8.343-11.33,6.28-18.055s-8.227-11.185-14.595-13.41A59.878,59.878,0,0,0,461,304.663c-4.106-.6-8.23-1.088-12.352-1.559q-25.036-2.864-50.261-3.5c-8.3-.209-16.594-.2-24.893-.083-7.412.108-15.217.1-22.093-3.045-5.347-2.45-10.2-6.906-11.689-12.763-1.72-6.76,1.452-13.645,6-18.541a48.6,48.6,0,0,1,8.093-6.75c3.137-2.167,6.384-4.18,9.7-6.059a135.08,135.08,0,0,1,20.418-9.413c3.481-1.266,7.013-2.358,10.576-3.365a90.5,90.5,0,0,0,8.935-2.861c5.621-2.24,10.968-6.035,12.4-12.257,1.355-5.9-.929-12.3-4.933-16.678-4.632-5.068-11.617-7.289-18.314-7.649-7.518-.4-14.862,1.478-21.929,3.866-7.536,2.547-14.91,5.475-22.606,7.538a152.1,152.1,0,0,1-23.266,4.325,63.113,63.113,0,0,1-11.676.558,14.119,14.119,0,0,1-8.858-3.517,8.76,8.76,0,0,1-2.85-7.546c.076-.52.866-.3.79.218-.511,3.483,1.857,6.693,4.775,8.337,3.372,1.9,7.476,1.9,11.23,1.686a146.879,146.879,0,0,0,24.173-3.494,194.264,194.264,0,0,0,22.859-7.056c7.143-2.587,14.446-5.111,22.077-5.671,6.621-.486,13.587.479,19.355,3.939a21.412,21.412,0,0,1,9.986,13.933,16.15,16.15,0,0,1-4.752,15.38c-4.457,4.109-10.569,5.866-16.264,7.484a149.007,149.007,0,0,0-21.135,7.566,132.676,132.676,0,0,0-19.881,11.177c-6.075,4.152-12.071,9.375-13.992,16.782a15.46,15.46,0,0,0,.768,10.368,18.946,18.946,0,0,0,6.08,7.215c6.1,4.485,13.778,5.406,21.141,5.5,8.27.1,16.54-.176,24.812-.04q25.288.415,50.473,3.078,6.311.668,12.605,1.477a113.969,113.969,0,0,1,11.273,1.828c6.6,1.532,13.019,4.476,17.121,10.071a15.926,15.926,0,0,1,1.356,17.414c-3.149,6.2-9.049,10.138-15.313,12.727a108.649,108.649,0,0,1-10.31,3.481.41.41,0,0,1-.218-.79Z" transform="translate(-267.547 -186.458)"/><circle class="b" cx="6.554" cy="6.554" r="6.554" transform="translate(27.826 12.426)"/><circle class="b" cx="6.554" cy="6.554" r="6.554" transform="translate(73.296 24.852)"/><circle class="b" cx="6.554" cy="6.554" r="6.554" transform="translate(111.803)"/><circle class="b" cx="6.554" cy="6.554" r="6.554" transform="translate(135.835 27.856)"/><circle class="b" cx="6.554" cy="6.554" r="6.554" transform="translate(103.337 60.081)"/><circle class="b" cx="6.554" cy="6.554" r="6.554" transform="translate(62.099 75.647)"/><circle class="b" cx="6.554" cy="6.554" r="6.554" transform="translate(105.794 99.952)"/><circle class="b" cx="6.554" cy="6.554" r="6.554" transform="translate(152.767 113.607)"/><circle class="b" cx="6.554" cy="6.554" r="6.554" transform="translate(207.658 110.603)"/><path class="a" d="M508.328,220.37A36.354,36.354,0,0,0,472.341,256.1c0,.181,0,1.456,0,3.123a9.216,9.216,0,0,0,9.215,9.216h0a9.221,9.221,0,0,0,9.22-9.228c0-1.136,0-1.921,0-1.969a17.478,17.478,0,1,1,26.905,14.714l0,0s-13.116,8.444-17.115,20.027h0a25.671,25.671,0,0,0-1.058,7.31c0,1.017.06,9.919.175,17.144a9.5,9.5,0,0,0,9.5,9.346h0a9.5,9.5,0,0,0,9.5-9.561c-.04-6.617-.062-14.321-.062-14.881,0-7.113,6.862-14.2,12.5-18.821a37.906,37.906,0,0,0,13.037-20.755,23.688,23.688,0,0,0,.683-5.143,36.253,36.253,0,0,0-36.515-36.252Z" transform="translate(-391.863 -201.799)"/><path class="c" d="M408.012,745.9H177.987a.325.325,0,1,1,0-.65H408.012a.325.325,0,1,1,0,.65Z" transform="translate(-177.662 -583.338)"/><circle class="d" cx="8.193" cy="8.193" r="8.193" transform="translate(163.432 58.168)"/><path class="e" d="M559.861,547.755h-3.348l-1.593-12.914h4.942Z" transform="translate(-403.375 -388.779)"/><path class="d" d="M541.174,578.626h6.457v4.065H537.109A4.065,4.065,0,0,1,541.174,578.626Z" transform="translate(-390.428 -420.607)"/><path class="e" d="M654.861,547.755h-3.348l-1.593-12.914h4.942Z" transform="translate(-472.431 -388.779)"/><path class="d" d="M636.174,578.626h6.457v4.065H632.109A4.065,4.065,0,0,1,636.174,578.626Z" transform="translate(-459.484 -420.607)"/><circle class="e" cx="6.707" cy="6.707" r="6.707" transform="translate(163.673 61.186)"/><path class="d" d="M752.358,453.826l3-6.9a8.57,8.57,0,0,0-1.9-9.722,8.7,8.7,0,0,0-.839-.729,8.448,8.448,0,0,0-5.186-1.794,8.787,8.787,0,0,0-3.659.814c-.1.044-.194.09-.292.137-.188.09-.374.188-.554.289a8.651,8.651,0,0,0-4.288,6.521l-1.325,11.1c-.333.871-12.218,32.332-8.062,56.35a1.22,1.22,0,0,0,1.043,1l4.214.573a1.228,1.228,0,0,0,1.368-.964l7.07-33.7a.957.957,0,0,1,1.857-.063l9.99,35.442a1.221,1.221,0,0,0,1.177.9,1.4,1.4,0,0,0,.238-.022l5.148-.991a1.221,1.221,0,0,0,.991-1.314C761.6,502.317,757.577,460.061,752.358,453.826Z" transform="translate(-577.98 -357.586)"/><path class="e" d="M706.052,414.875a2.746,2.746,0,0,0,2.893,3.06l3.749,9.01,2.836-4.2-4-7.911a2.761,2.761,0,0,0-5.483.046Z" transform="translate(-561.739 -341.399)"/><path class="e" d="M791.92,508.582a2.746,2.746,0,0,0,2.3-3.526l7.888-5.745-4.749-1.778L790.6,503.26a2.761,2.761,0,0,0,1.322,5.322Z" transform="translate(-621.912 -403.27)"/><path class="d" d="M727.3,451.832a4.656,4.656,0,0,1-.9-.089,4.453,4.453,0,0,1-3.263-2.626l-5.253-6.4a1.229,1.229,0,0,1,.3-1.824l3.737-2.313a1.229,1.229,0,0,1,1.7.407l3.7,6.1,7.09-5.24a2.655,2.655,0,0,1,3.089,4.25l-7.076,6.455A4.438,4.438,0,0,1,727.3,451.832Z" transform="translate(-570.147 -360.28)"/><path class="d" d="M811.137,466.8h-.029a1.231,1.231,0,0,1-.9-.429l-3.323-3.876a1.229,1.229,0,0,1,.251-1.822l6.221-4.148-5.636-6.776a2.655,2.655,0,0,1,4.066-3.327l6.85,6.694a4.513,4.513,0,0,1-1,7.357l-5.6,5.941a1.231,1.231,0,0,1-.894.386Z" transform="translate(-634.831 -365.61)"/><path class="f" d="M785.431,442.671a1.267,1.267,0,0,1-.159-.01,1.218,1.218,0,0,1-1.013-.838l-2.5-7.655a.842.842,0,0,1,.435-1.017l.081-.038c.073-.035.146-.069.221-.1a8.9,8.9,0,0,1,3.715-.826,8.555,8.555,0,0,1,4.687,1.408.855.855,0,0,1,.246,1.173l-4.684,7.337a1.217,1.217,0,0,1-1.031.568Z" transform="translate(-616.756 -355.769)"/><circle class="d" cx="2.681" cy="2.681" r="2.681" transform="translate(175.404 57.341)"/><path class="d" d="M777.212,361.365h0a7.1,7.1,0,0,0-7.1,7.1v3h3.695l1.767-3,.53,3h11.213l-3-3A7.1,7.1,0,0,0,777.212,361.365Z" transform="translate(-608.317 -304.29)"/><path class="d" d="M834.809,357.772a4.137,4.137,0,0,1,4.5-2.839,5.733,5.733,0,0,1,3.864,3.193,31.443,31.443,0,0,1,1.718,4.9,8.867,8.867,0,0,0,2.674,4.365,3.98,3.98,0,0,0,4.8.258,5.494,5.494,0,0,1-10.235,1.961,11.886,11.886,0,0,1-1.1-4.165,9.1,9.1,0,0,0-1.328-4.08,3.375,3.375,0,0,0-3.77-1.4Z" transform="translate(-655.346 -299.587)"/><path class="g" d="M483.811,304.018h0A9.216,9.216,0,0,1,474.6,294.8c0-1.668,0-2.942,0-3.124a35.913,35.913,0,0,1,4.194-16.361,35.995,35.995,0,0,0-6.925,20.73c0,.181,0,1.456,0,3.123a9.216,9.216,0,0,0,9.215,9.216h0a9.223,9.223,0,0,0,8.872-6.716A9.182,9.182,0,0,1,483.811,304.018Z" transform="translate(-391.52 -241.742)"/><path class="g" d="M568.786,279.795a17.479,17.479,0,0,1,15.2,24.418,17.477,17.477,0,1,0-29.337-18.293A17.443,17.443,0,0,1,568.786,279.795Z" transform="translate(-451.696 -241.805)"/><path class="g" d="M583.772,491.205h0a9.5,9.5,0,0,1-9.5-9.348c-.116-7.223-.175-16.125-.175-17.142a25.674,25.674,0,0,1,1.058-7.31h0a25.962,25.962,0,0,1,1.5-3.469,30.054,30.054,0,0,0-4.231,7.838h0a25.671,25.671,0,0,0-1.058,7.31c0,1.017.06,9.919.175,17.144a9.5,9.5,0,0,0,9.5,9.346h0a9.5,9.5,0,0,0,9.121-6.839A9.465,9.465,0,0,1,583.772,491.205Z" transform="translate(-463.847 -371.58)"/><path class="h" d="M126.539,548.21h3.348L131.48,535.3h-4.942Z" transform="translate(-91.981 -389.11)"/><path class="d" d="M0,0H10.522V4.065H4.066A4.065,4.065,0,0,1,0,0H0Z" transform="translate(44.362 162.209) rotate(179.997)"/><path class="h" d="M82.539,548.21h3.348L87.48,535.3H82.538Z" transform="translate(-59.997 -389.11)"/><path class="d" d="M0,0H10.522V4.065H4.066A4.065,4.065,0,0,1,0,0H0Z" transform="translate(32.346 162.209) rotate(179.997)"/><path class="d" d="M258.993,601.152l-3.27-.172a1.276,1.276,0,0,1-1.207-1.356l3.909-43.276,18,4.857,1.734-.473-5.423,38.311a1.282,1.282,0,0,1-1.19,1.077l-3.525.164a1.276,1.276,0,0,1-1.347-1.31l.639-22.993a.426.426,0,0,0-.842-.1l-6.16,24.254a1.269,1.269,0,0,1-1.248,1.017Z" transform="translate(-233.526 -446.024)"/><circle class="h" cx="6.707" cy="6.707" r="6.707" transform="translate(28.451 61.5)"/><path class="i" d="M265.481,446l.738,15.912.267,5.789a1.268,1.268,0,0,0,.84,1.14l17.3,6.266a1.223,1.223,0,0,0,.437.077,1.268,1.268,0,0,0,1.274-1.308l-.709-28.611a10.085,10.085,0,0,0-8.4-9.743c-.167-.026-.338-.051-.508-.074a9.9,9.9,0,0,0-7.965,2.578A10.169,10.169,0,0,0,265.481,446Z" transform="translate(-241.489 -358.087)"/><path class="h" d="M346.339,536.583a2.748,2.748,0,0,1-1.466-4.158l-5.866-7.8,5.062-.313,4.794,7.455a2.761,2.761,0,0,1-2.524,4.816Z" transform="translate(-294.945 -422.736)"/><path class="i" d="M324.676,478.411a1.268,1.268,0,0,1-.694-.688l-8.837-21.054a3.4,3.4,0,1,1,6.277-2.635l8.837,21.054a1.278,1.278,0,0,1-.683,1.671l-3.923,1.646a1.267,1.267,0,0,1-.977,0Z" transform="translate(-277.406 -370.134)"/><path class="c" d="M298.106,500.972l8.488-16.251a1.332,1.332,0,0,1,1.8-.564l12.32,6.434a1.332,1.332,0,0,1,.564,1.8l-8.488,16.251a1.332,1.332,0,0,1-1.8.564l-12.32-6.434A1.332,1.332,0,0,1,298.106,500.972Z" transform="translate(-265.104 -393.438)"/><path class="h" d="M286.388,501.341a2.748,2.748,0,0,0-4.238-1.218l-8.132-5.395L274,499.8l7.725,4.345a2.761,2.761,0,0,0,4.659-2.8Z" transform="translate(-247.694 -401.232)"/><path class="i" d="M255.505,465.639l-6.646-5.265a4.687,4.687,0,0,1-2.137-7.41l6.035-7.909a2.757,2.757,0,0,1,4.678,2.809l-4.775,7.81L259.677,459a1.276,1.276,0,0,1,.532,1.835l-2.832,4.483a1.279,1.279,0,0,1-.865.576l-.021,0A1.282,1.282,0,0,1,255.505,465.639Z" transform="translate(-227.093 -364.389)"/><path class="d" d="M279.068,381.471a.583.583,0,0,1,.507-.77,1.347,1.347,0,0,1,.949.468,3.779,3.779,0,0,0,.839.72.722.722,0,0,0,.949-.172,1.321,1.321,0,0,0-.05-1.025,10.079,10.079,0,0,1-.445-2.668,4.7,4.7,0,0,1,.672-2.853,3.775,3.775,0,0,1,3.235-1.375,21.744,21.744,0,0,1,3.634.644,1.221,1.221,0,0,0,1.188-.2,1.532,1.532,0,0,0,.062-1.366,9.491,9.491,0,0,0-1.438-3.428,5.161,5.161,0,0,0-3.294-1.854,7.9,7.9,0,0,0-3.676.417,9.858,9.858,0,0,0-4.829,3.364,7.984,7.984,0,0,0-1.523,5.9,7.283,7.283,0,0,0,2.7,4.6Z" transform="translate(-248.977 -308.773)"/><path class="g" d="M572.792,683.183a12.561,12.561,0,0,1-4.662-19.523,12.562,12.562,0,1,0,17.087,18.151A12.554,12.554,0,0,1,572.792,683.183Z" transform="translate(-457.749 -524.03)"/></svg>