<svg xmlns="http://www.w3.org/2000/svg" width="39.765" height="72.075" viewBox="0 0 39.765 72.075"><defs><style>.a{fill:#2c353f;}.b{fill:#c2000b;}.c{fill:#c4ced3;}.d{fill:#fe0000;font-size:12px;font-family:Poppins-Medium, Poppins;font-weight:500;}</style></defs><path class="a" d="M151.275,0H118.009a3.25,3.25,0,0,0-3.25,3.25V68.825a3.25,3.25,0,0,0,3.25,3.25h33.267a3.25,3.25,0,0,0,3.248-3.25V3.25A3.25,3.25,0,0,0,151.275,0Z" transform="translate(-114.759 0)"/><rect class="b" width="39.765" height="52.192" transform="translate(0 7.456)"/><g transform="translate(12.427 2.485)"><path class="c" d="M216.7,20.139H204.277a1.243,1.243,0,1,1,0-2.485H216.7a1.243,1.243,0,0,1,0,2.485Z" transform="translate(-203.034 -17.654)"/><path class="c" d="M346.76,20.139h-1.243a1.243,1.243,0,0,1,0-2.485h1.243a1.243,1.243,0,1,1,0,2.485Z" transform="translate(-324.392 -17.654)"/><path class="c" d="M234.787,455.177H231.7a2.185,2.185,0,0,1-2.185-2.186v-.6a2.185,2.185,0,0,1,2.186-2.185h3.086a2.185,2.185,0,0,1,2.185,2.186v.6A2.185,2.185,0,0,1,234.787,455.177Z" transform="translate(-225.789 -389.315)"/></g><text class="d" transform="translate(19.57 37.289)"><tspan x="-11.52" y="0">RFC</tspan></text></svg>