<svg xmlns="http://www.w3.org/2000/svg" width="304.465" height="166.99" viewBox="0 0 304.465 166.99"><defs><style>.a{fill:#d0cde1;}.b{fill:#3f3d56;}.c{fill:#fff;}.d{fill:#fe0000;}</style></defs><g transform="translate(1.759)"><path class="a" d="M115.641,443.835,130.1,420.892l-14.464,25.443-.008,2.614q-1.547-.018-3.063-.119l1.179-33.584-.016-.26.027-.05.112-3.173L98.75,386.618l15.132,22.77.045.672.891-25.374-13-26.017,13.1,21.558.609-52.593,0-.175,0,.172.3,41.466,12.418-16.591-12.429,20.163-.058,22.711,11.522-21.934-11.528,25.273-.032,12.629,16.737-30.541-16.75,34.946Z" transform="translate(-98.985 -281.959)"/><rect class="b" width="4.065" height="28.858" transform="translate(215.521 65.033)"/><rect class="b" width="4.065" height="162.327" transform="translate(67.656 7.385) rotate(-67.908)"/><rect class="b" width="35.362" height="13.82" transform="translate(259.418 123.157)"/><rect class="b" width="174.37" height="15.445" transform="translate(117.158 135.35)"/><path class="a" d="M701.065,322.094H659.2V269.458h31.3L701.065,296Z" transform="translate(-438.192 -179.021)"/><rect class="c" width="17.884" height="17.884" transform="translate(227.512 93.688)"/><path class="c" d="M749.3,297.636H737.918V279.752H742.8Z" transform="translate(-490.49 -185.86)"/><rect class="b" width="4.065" height="7.723" transform="translate(228.324 121.734)"/><path class="b" d="M748.212,313.661h.2a3.861,3.861,0,0,1,3.861,3.861h0a3.861,3.861,0,0,1-3.861,3.861h-.2Z" transform="translate(-497.329 -208.389)"/><path class="b" d="M297.7,403.278h.2a3.861,3.861,0,0,1,3.861,3.861h0A3.861,3.861,0,0,1,297.906,411h-.2Z" transform="translate(-198.022 -267.928)"/><path class="a" d="M891.3,553.77a20.11,20.11,0,0,1,15.631,7.781h7.943l-7.723-21.512-35.971-7.094,1.016,28.607h3.472A20.11,20.11,0,0,1,891.3,553.77Z" transform="translate(-612.171 -418.478)"/><circle class="b" cx="17.681" cy="17.681" r="17.681" transform="translate(261.857 130.473)"/><circle class="a" cx="9.306" cy="9.306" r="9.306" transform="translate(270.232 138.848)"/><circle class="b" cx="15.445" cy="15.445" r="15.445" transform="translate(104.355 134.741)"/><circle class="a" cx="8.129" cy="8.129" r="8.129" transform="translate(111.671 142.057)"/><rect class="b" width="8.536" height="61.578" transform="translate(213.692 83.12)"/><rect class="b" width="122.75" height="3.658" transform="translate(99.478 133.521)"/><rect class="b" width="138.733" height="3.658" transform="translate(33.788 146.947) rotate(-15.22)"/><rect class="b" width="2.845" height="23.781" transform="translate(156.224 116.649) rotate(-36.311)"/><rect class="b" width="4.065" height="1.626" transform="translate(249.257 112.589)"/><path class="b" d="M641.45,531.5H588.2a.406.406,0,0,1-.116-.8l52.026-15.445a.406.406,0,0,1,.521.358l1.219,15.445a.406.406,0,0,1-.405.438ZM591,530.685H641.01l-1.145-14.506Z" transform="translate(-423.897 -406.715)"/><path class="b" d="M294.146,403.852h0l-11.668-.11a.407.407,0,0,1-.4-.453l6.063-52.9a.407.407,0,0,1,.4-.36h0a.407.407,0,0,1,.4.364l5.606,53.009a.407.407,0,0,1-.4.449Zm-11.213-.918,10.761.1-5.17-48.887Z" transform="translate(-220.78 -296.954)"/><path class="b" d="M0,0H.2A3.861,3.861,0,0,1,4.065,3.861h0A3.861,3.861,0,0,1,.2,7.723H0Z" transform="matrix(-0.935, 0.354, -0.354, -0.935, 297.639, 129.098)"/><rect class="b" width="11.774" height="1.869" transform="translate(39.065 134.642) rotate(-15.637)"/><path class="d" d="M299.762,449.711l-2.188,1.195-88.9,24.885-1.32-1.64a19.524,19.524,0,0,1-4.223-9.781c-.336-2.68-.09-5.5,1.779-7.224l-3.4-27.384,49.169-13.829L274,425.968s8.933-2.669,15.507,2.041a14.8,14.8,0,0,1,5.174,7.017l1.075,3.105Z" transform="translate(-167.257 -340.739)"/><circle class="b" cx="11.4" cy="11.4" r="11.4" transform="translate(101.452 102.588)"/><circle class="a" cx="6" cy="6" r="6" transform="translate(106.852 107.988)"/><circle class="b" cx="11.4" cy="11.4" r="11.4" transform="translate(47.282 117.751)"/><circle class="a" cx="6" cy="6" r="6" transform="translate(52.682 123.151)"/><path class="c" d="M219.015,240.945l-35.274,9.873L180.769,240.2l22.5-6.3Z" transform="translate(-120.334 -155.399)"/><rect class="c" width="14.577" height="11.026" transform="translate(42.078 89.939) rotate(-15.637)"/><rect class="b" width="1.869" height="3.551" transform="translate(65.623 103.338) rotate(-15.637)"/><rect class="b" width="1.869" height="3.551" transform="translate(95.757 89.662) rotate(74.363)"/><path class="b" d="M0,0H.206A3.906,3.906,0,0,1,4.111,3.906h0A3.906,3.906,0,0,1,.206,7.812H0Z" transform="translate(91.714 83.537) rotate(-15.637)"/><path class="b" d="M465.924,462.035a6.037,6.037,0,0,1-6.249-10.122,14.8,14.8,0,0,1,5.174,7.017Z" transform="translate(-337.426 -364.642)"/><rect class="b" width="4.065" height="59.343" transform="translate(65.538 3.658)"/><circle class="b" cx="5.69" cy="5.69" r="5.69" transform="translate(61.88 0)"/><circle class="b" cx="5.69" cy="5.69" r="5.69" transform="translate(211.863 60.156)"/><path class="b" d="M478.466,745.813H178.087c-.235,0-.425-.126-.425-.282s.19-.282.425-.282H478.466c.234,0,.425.126.425.282S478.7,745.813,478.466,745.813Z" transform="translate(-179.422 -579.765)"/></g></svg>